<svg width="80" height="80" viewBox="0 0 80 80" fill="none" xmlns="http://www.w3.org/2000/svg">
  <path fill-rule="evenodd" clip-rule="evenodd" d="M18.1291 21.5753C15.6229 24.0749 14.2148 27.4651 14.2148 31.0001C14.2148 34.5351 15.6229 37.9253 18.1291 40.4249L32.1578 54.4164L38.3166 60.5588C39.0972 61.3374 40.3606 61.3374 41.1412 60.5588L47.3 54.4164C47.301 54.4154 47.3021 54.4143 47.3032 54.4132L61.3287 40.4249C63.8349 37.9253 65.2429 34.5351 65.2429 31.0001C65.2429 27.4651 63.8349 24.0749 61.3287 21.5753C58.8224 19.0757 55.4232 17.6714 51.8788 17.6714C48.3344 17.6714 44.9351 19.0757 42.4289 21.5753L40.3885 23.6102C40.0239 23.9738 39.4338 23.9738 39.0693 23.6102L37.0289 21.5753C34.5227 19.0757 31.1234 17.6714 27.579 17.6714C24.0346 17.6714 20.6354 19.0757 18.1291 21.5753Z" fill="#EB5757" />
  <path fill-rule="evenodd" clip-rule="evenodd" d="M61.0177 40.7344C60.9235 40.7207 60.8271 40.7137 60.7291 40.7137H56.2062L49.5269 26.1721C48.4229 23.7686 44.9747 23.8661 44.0082 26.3281L43.1989 28.3896L35.5982 47.751L31.6503 36.6334C30.762 34.1317 27.3011 33.9318 26.1306 36.3146L25.2985 38.0086L23.9697 40.7137H18.7274C18.6296 40.7137 18.5335 40.7207 18.4395 40.7343L22.4295 44.7137H24.5926C25.7365 44.7137 26.7809 44.0631 27.2852 43.0364L28.6748 40.2076L32.1811 50.0815L32.7242 51.6111C33.653 54.2264 37.3297 54.2868 38.3438 51.7034L46.8728 29.9772L52.839 42.9659C53.3282 44.031 54.393 44.7137 55.5651 44.7137H57.0278L61.0177 40.7344Z" fill="#F2C94C" />
</svg>